<svg width="99" height="74" viewBox="0 0 99 74" fill="none" xmlns="http://www.w3.org/2000/svg">
<mask id="path-1-outside-1_0_1" maskUnits="userSpaceOnUse" x="40" y="0" width="59" height="73" fill="black">
<rect fill="white" x="40" width="59" height="73"/>
<path d="M40.9375 72V0.727271H71.7017C76.9915 0.727271 81.62 1.77131 85.5874 3.85938C89.5547 5.94744 92.6404 8.88234 94.8445 12.6641C97.0485 16.4458 98.1506 20.8655 98.1506 25.9233C98.1506 31.0275 97.0137 35.4472 94.7401 39.1825C92.4896 42.9178 89.3227 45.7947 85.2393 47.8132C81.1792 49.8317 76.4347 50.8409 71.0057 50.8409H52.6307V35.8068H67.108C69.3816 35.8068 71.3189 35.4124 72.9197 34.6236C74.5438 33.8116 75.785 32.6631 76.6435 31.1783C77.5251 29.6934 77.9659 27.9418 77.9659 25.9233C77.9659 23.8816 77.5251 22.1416 76.6435 20.7031C75.785 19.2415 74.5438 18.1278 72.9197 17.3622C71.3189 16.5734 69.3816 16.179 67.108 16.179H60.2869V72H40.9375Z"/>
</mask>
<path d="M40.9375 72V0.727271H71.7017C76.9915 0.727271 81.62 1.77131 85.5874 3.85938C89.5547 5.94744 92.6404 8.88234 94.8445 12.6641C97.0485 16.4458 98.1506 20.8655 98.1506 25.9233C98.1506 31.0275 97.0137 35.4472 94.7401 39.1825C92.4896 42.9178 89.3227 45.7947 85.2393 47.8132C81.1792 49.8317 76.4347 50.8409 71.0057 50.8409H52.6307V35.8068H67.108C69.3816 35.8068 71.3189 35.4124 72.9197 34.6236C74.5438 33.8116 75.785 32.6631 76.6435 31.1783C77.5251 29.6934 77.9659 27.9418 77.9659 25.9233C77.9659 23.8816 77.5251 22.1416 76.6435 20.7031C75.785 19.2415 74.5438 18.1278 72.9197 17.3622C71.3189 16.5734 69.3816 16.179 67.108 16.179H60.2869V72H40.9375Z" fill="#111111"/>
<path d="M40.9375 72H40.7375V72.2H40.9375V72ZM40.9375 0.727272V0.527267H40.7375V0.727272H40.9375ZM85.5874 3.85938L85.4942 4.03636L85.5874 3.85938ZM94.8445 12.6641L95.0173 12.5634L94.8445 12.6641ZM94.7401 39.1825L94.5692 39.0785L94.5687 39.0793L94.7401 39.1825ZM85.2393 47.8132L85.1507 47.6339L85.1503 47.6341L85.2393 47.8132ZM52.6307 50.8409H52.4307V51.0409H52.6307V50.8409ZM52.6307 35.8068V35.6068H52.4307V35.8068H52.6307ZM72.9197 34.6236L73.0081 34.803L73.0092 34.8025L72.9197 34.6236ZM76.6435 31.1783L76.4715 31.0761L76.4703 31.0782L76.6435 31.1783ZM76.6435 20.7031L76.471 20.8044L76.4729 20.8076L76.6435 20.7031ZM72.9197 17.3622L72.8313 17.5416L72.8345 17.5431L72.9197 17.3622ZM60.2869 16.179V15.979H60.0869V16.179H60.2869ZM60.2869 72V72.2H60.4869V72H60.2869ZM41.1375 72V0.727272H40.7375V72H41.1375ZM40.9375 0.927269H71.7017V0.527267H40.9375V0.927269ZM71.7017 0.927269C76.9649 0.927269 81.5603 1.9659 85.4942 4.03636L85.6805 3.68239C81.6797 1.57671 77.0181 0.527267 71.7017 0.527267V0.927269ZM85.4942 4.03636C89.4292 6.10741 92.487 9.01625 94.6717 12.7648L95.0173 12.5634C92.7938 8.74842 89.6802 5.78747 85.6805 3.68239L85.4942 4.03636ZM94.6717 12.7648C96.8553 16.5114 97.9506 20.8953 97.9506 25.9233H98.3506C98.3506 20.8357 97.2418 16.3801 95.0173 12.5634L94.6717 12.7648ZM97.9506 25.9233C97.9506 30.997 96.8208 35.3795 94.5692 39.0785L94.9109 39.2865C97.2066 35.5149 98.3506 31.0579 98.3506 25.9233H97.9506ZM94.5687 39.0793C92.3389 42.7804 89.2014 45.6316 85.1507 47.6339L85.328 47.9925C89.444 45.9579 92.6403 43.0553 94.9114 39.2857L94.5687 39.0793ZM85.1503 47.6341C81.1228 49.6364 76.4098 50.6409 71.0057 50.6409V51.0409C76.4595 51.0409 81.2356 50.027 85.3284 47.9923L85.1503 47.6341ZM71.0057 50.6409H52.6307V51.0409H71.0057V50.6409ZM52.8307 50.8409V35.8068H52.4307V50.8409H52.8307ZM52.6307 36.0068H67.108V35.6068H52.6307V36.0068ZM67.108 36.0068C69.4041 36.0068 71.3733 35.6086 73.0081 34.803L72.8313 34.4442C71.2645 35.2163 69.3591 35.6068 67.108 35.6068V36.0068ZM73.0092 34.8025C74.6661 33.974 75.9374 32.7991 76.8166 31.2784L76.4703 31.0782C75.6327 32.5271 74.4215 33.6491 72.8303 34.4447L73.0092 34.8025ZM76.8154 31.2804C77.7183 29.7597 78.1659 27.9716 78.1659 25.9233H77.7659C77.7659 27.912 77.3319 29.6271 76.4715 31.0762L76.8154 31.2804ZM78.1659 25.9233C78.1659 23.8525 77.7186 22.0745 76.814 20.5986L76.4729 20.8076C77.3316 22.2086 77.7659 23.9107 77.7659 25.9233H78.1659ZM76.8159 20.6018C75.9359 19.1034 74.6632 17.963 73.005 17.1813L72.8345 17.5431C74.4244 18.2927 75.6342 19.3796 76.471 20.8044L76.8159 20.6018ZM73.0081 17.1828C71.3733 16.3772 69.4041 15.979 67.108 15.979V16.379C69.3591 16.379 71.2645 16.7695 72.8313 17.5416L73.0081 17.1828ZM67.108 15.979H60.2869V16.379H67.108V15.979ZM60.0869 16.179V72H60.4869V16.179H60.0869ZM60.2869 71.8H40.9375V72.2H60.2869V71.8Z" fill="#111111" mask="url(#path-1-outside-1_0_1)"/>
<mask id="path-3-outside-2_0_1" maskUnits="userSpaceOnUse" x="-1" y="0" width="62" height="75" fill="#111111">
<rect fill="white" x="-1" width="62" height="75"/>
<path d="M58.9116 8.74H49.0116V71H40.4316V45.59L13.0416 73.09L4.90156 66.16L25.4716 49.44C23.0516 49.3667 20.7782 48.9267 18.6516 48.12C16.5982 47.24 14.7649 46.03 13.1516 44.49C11.6116 42.95 10.4016 41.08 9.52156 38.88C8.64156 36.68 8.20156 34.1133 8.20156 31.18V8.74H0.501562V1.69999H58.9116V8.74ZM16.7816 30.3C16.7816 34.48 17.7349 37.4867 19.6416 39.32C21.5482 41.1533 24.2616 42.07 27.7816 42.07C30.4949 42.07 32.9149 41.52 35.0416 40.42C37.1682 39.32 38.9649 37.8533 40.4316 36.02V8.74H16.7816V30.3Z"/>
</mask>
<path d="M58.9116 8.74H49.0116V71H40.4316V45.59L13.0416 73.09L4.90156 66.16L25.4716 49.44C23.0516 49.3667 20.7782 48.9267 18.6516 48.12C16.5982 47.24 14.7649 46.03 13.1516 44.49C11.6116 42.95 10.4016 41.08 9.52156 38.88C8.64156 36.68 8.20156 34.1133 8.20156 31.18V8.74H0.501562V1.69999H58.9116V8.74ZM16.7816 30.3C16.7816 34.48 17.7349 37.4867 19.6416 39.32C21.5482 41.1533 24.2616 42.07 27.7816 42.07C30.4949 42.07 32.9149 41.52 35.0416 40.42C37.1682 39.32 38.9649 37.8533 40.4316 36.02V8.74H16.7816V30.3Z" fill="#111111"/>
<path d="M58.9116 8.73999V9.93999H60.1116V8.73999H58.9116ZM49.0116 8.73999V7.53999H47.8116V8.73999H49.0116ZM49.0116 71V72.2H50.2116V71H49.0116ZM40.4316 71H39.2316V72.2H40.4316V71ZM40.4316 45.59H41.6316V42.6847L39.5813 44.7432L40.4316 45.59ZM13.0416 73.09L12.2637 74.0037L13.1087 74.7231L13.8918 73.9368L13.0416 73.09ZM4.90156 66.16L4.14466 65.2288L3.02533 66.1386L4.12367 67.0737L4.90156 66.16ZM25.4716 49.44L26.2285 50.3712L28.7296 48.3382L25.5079 48.2405L25.4716 49.44ZM18.6516 48.12L18.1789 49.223L18.2022 49.233L18.226 49.242L18.6516 48.12ZM13.1516 44.49L12.303 45.3385L12.3129 45.3484L12.323 45.358L13.1516 44.49ZM8.20156 8.73999H9.40156V7.53999H8.20156V8.73999ZM0.501564 8.73999H-0.698437V9.93999H0.501564V8.73999ZM0.501564 1.69999V0.499992H-0.698437V1.69999H0.501564ZM58.9116 1.69999H60.1116V0.499992H58.9116V1.69999ZM19.6416 39.32L18.8098 40.185L19.6416 39.32ZM35.0416 40.42L34.4903 39.3541L35.0416 40.42ZM40.4316 36.02L41.3686 36.7696L41.6316 36.4409V36.02H40.4316ZM40.4316 8.73999H41.6316V7.53999H40.4316V8.73999ZM16.7816 8.73999V7.53999H15.5816V8.73999H16.7816ZM58.9116 7.53999H49.0116V9.93999H58.9116V7.53999ZM47.8116 8.73999V71H50.2116V8.73999H47.8116ZM49.0116 69.8H40.4316V72.2H49.0116V69.8ZM41.6316 71V45.59H39.2316V71H41.6316ZM39.5813 44.7432L12.1913 72.2432L13.8918 73.9368L41.2818 46.4368L39.5813 44.7432ZM13.8195 72.1763L5.67946 65.2463L4.12367 67.0737L12.2637 74.0037L13.8195 72.1763ZM5.65846 67.0912L26.2285 50.3712L24.7147 48.5088L4.14466 65.2288L5.65846 67.0912ZM25.5079 48.2405C23.2124 48.171 21.0714 47.7545 19.0771 46.998L18.226 49.242C20.485 50.0989 22.8907 50.5623 25.4352 50.6395L25.5079 48.2405ZM19.1243 47.017C17.2024 46.1934 15.4897 45.0629 13.9801 43.622L12.323 45.358C14.0401 46.9971 15.994 48.2866 18.1789 49.223L19.1243 47.017ZM14.0001 43.6415C12.5848 42.2262 11.4607 40.4968 10.6357 38.4343L8.40739 39.3257C9.34239 41.6632 10.6383 43.6738 12.303 45.3385L14.0001 43.6415ZM10.6357 38.4343C9.82416 36.4054 9.40156 33.9958 9.40156 31.18H7.00156C7.00156 34.2309 7.45896 36.9546 8.40739 39.3257L10.6357 38.4343ZM9.40156 31.18V8.73999H7.00156V31.18H9.40156ZM8.20156 7.53999H0.501564V9.93999H8.20156V7.53999ZM1.70156 8.73999V1.69999H-0.698437V8.73999H1.70156ZM0.501564 2.89999H58.9116V0.499992H0.501564V2.89999ZM57.7116 1.69999V8.73999H60.1116V1.69999H57.7116ZM15.5816 30.3C15.5816 34.6221 16.5618 38.0234 18.8098 40.185L20.4733 38.455C18.908 36.9499 17.9816 34.3379 17.9816 30.3H15.5816ZM18.8098 40.185C21.006 42.2967 24.0569 43.27 27.7816 43.27V40.87C24.4663 40.87 22.0905 40.01 20.4733 38.455L18.8098 40.185ZM27.7816 43.27C30.6609 43.27 33.2743 42.6851 35.5929 41.4859L34.4903 39.3541C32.5555 40.3549 30.3288 40.87 27.7816 40.87V43.27ZM35.5929 41.4859C37.8658 40.3102 39.7948 38.7369 41.3686 36.7696L39.4945 35.2704C38.135 36.9698 36.4707 38.3298 34.4903 39.3541L35.5929 41.4859ZM41.6316 36.02V8.73999H39.2316V36.02H41.6316ZM40.4316 7.53999H16.7816V9.93999H40.4316V7.53999ZM15.5816 8.73999V30.3H17.9816V8.73999H15.5816Z" fill="#111111" mask="url(#path-3-outside-2_0_1)"/>
</svg>
